<?xml version="1.0" standalone="no"?>
<!DOCTYPE svg PUBLIC "-//W3C//DTD SVG 20010904//EN"
 "http://www.w3.org/TR/2001/REC-SVG-20010904/DTD/svg10.dtd">
<svg version="1.0" xmlns="http://www.w3.org/2000/svg"
 width="840.000000pt" height="386.000000pt" viewBox="0 0 840.000000 386.000000"
 preserveAspectRatio="xMidYMid meet">

<g transform="translate(0.000000,386.000000) scale(0.100000,-0.100000)"
fill="#000000" stroke="none">
<path d="M3960 3434 c-281 -13 -819 -94 -885 -132 -46 -28 -65 -70 -75 -174
-27 -276 -32 -343 -45 -563 -19 -311 -19 -711 -1 -830 75 -493 376 -896 866
-1162 82 -45 255 -120 338 -147 l53 -18 107 42 c59 23 111 46 116 50 7 7 -164
353 -444 895 -43 83 -173 337 -290 565 -375 731 -337 664 -404 712 -32 24 -62
53 -67 66 -10 26 -12 341 -3 366 3 9 16 16 27 16 23 0 277 -188 302 -223 10
-14 15 -45 15 -89 0 -38 2 -68 4 -68 2 0 28 11 57 24 79 36 199 57 324 59 129
1 161 -7 371 -94 79 -33 174 -66 212 -74 177 -38 420 -1 604 91 l46 24 6 -63
c15 -165 26 -336 32 -473 l7 -152 -44 -32 c-47 -35 -211 -116 -294 -146 -83
-30 -219 -25 -330 13 -211 73 -267 87 -350 86 -57 0 -96 -6 -136 -22 -108 -41
-111 -17 28 -293 158 -314 543 -1072 547 -1076 8 -8 222 145 302 216 308 272
476 603 514 1015 16 182 -8 721 -55 1226 -16 167 -31 208 -85 236 -53 28 -373
83 -635 111 -137 14 -586 25 -735 18z m755 -268 c182 -23 438 -65 446 -74 4
-4 9 -31 11 -60 l5 -53 -46 -23 c-143 -72 -279 -100 -462 -94 -123 4 -126 4
-334 75 -115 39 -237 77 -270 83 -62 13 -204 8 -280 -10 -39 -9 -43 -7 -142
58 -57 37 -103 70 -103 75 0 4 10 7 23 8 12 0 94 9 182 19 206 24 763 22 970
-4z m-1074 -1567 c236 -474 428 -864 424 -867 -9 -9 -172 78 -285 153 -125 83
-313 265 -382 370 -145 220 -212 442 -212 695 1 158 14 510 20 510 2 0 198
-387 435 -861z m1575 179 c-22 -175 -123 -415 -239 -568 -70 -92 -222 -243
-238 -238 -11 4 -84 142 -260 489 -54 109 -115 221 -134 249 -20 29 -34 54
-33 55 2 2 41 -12 88 -32 200 -81 384 -100 530 -55 88 28 192 81 241 122 19
16 38 29 43 30 5 0 6 -24 2 -52z"/>
</g>
</svg>
